<!-- Generated by IcoMoon.io -->
<svg version="1.1" xmlns="http://www.w3.org/2000/svg" width="32" height="32" viewBox="0 0 32 32">
<title>Linkedin</title>
<path fill="#fff" d="M32.006 16.003c0 0.006 0 0.013 0 0.020 0 4.413-1.792 8.407-4.687 11.295l-0 0c-2.888 2.896-6.883 4.687-11.295 4.687-0.007 0-0.014 0-0.021 0h0.001c-0.006 0-0.013 0-0.020 0-4.413 0-8.407-1.792-11.295-4.687l-0-0c-2.896-2.888-4.687-6.883-4.687-11.295 0-0.007 0-0.014 0-0.021v0.001c0-0.006 0-0.013 0-0.020 0-4.413 1.792-8.407 4.687-11.295l0-0c2.888-2.896 6.883-4.687 11.295-4.687 0.007 0 0.014 0 0.021 0h-0.001c0.006 0 0.013 0 0.020 0 4.413 0 8.407 1.792 11.295 4.687l0 0c2.896 2.888 4.687 6.883 4.687 11.295 0 0.007 0 0.014 0 0.021v-0.001z"></path>
<path fill="#afb1b8" d="M23.274 23.277h0.004v-5.336c0-2.61-0.562-4.621-3.613-4.621-1.467 0-2.451 0.805-2.854 1.568h-0.042v-1.324h-2.894v9.712h3.013v-4.809c0-1.266 0.24-2.491 1.808-2.491 1.545 0 1.568 1.445 1.568 2.572v4.729h3.009zM8.969 13.565h3.017v9.712h-3.017v-9.712zM10.476 8.729c-0.965 0-1.747 0.782-1.747 1.747v0c0 0.964 0.783 1.763 1.747 1.763s1.747-0.799 1.747-1.763c-0-0.965-0.782-1.746-1.746-1.747h-0z"></path>
</svg>
